<svg width="16" height="17" viewBox="0 0 16 17" fill="none" xmlns="http://www.w3.org/2000/svg">
<path d="M0.991098 5.93103H9.51724V9.62605C9.51724 9.88977 9.41283 10.1427 9.22698 10.3292C9.04112 10.5157 8.78903 10.6206 8.52614 10.6207H0V6.92522C0 6.66155 0.104419 6.40867 0.290286 6.22222C0.476153 6.03578 0.728243 5.93103 0.991098 5.93103Z" fill="#4FBDBA"/>
<path fill-rule="evenodd" clip-rule="evenodd" d="M10.6207 5.79309H14.7951C14.9535 5.79323 15.1102 5.82418 15.2565 5.88419C15.4028 5.94419 15.5356 6.03207 15.6475 6.14281C15.7594 6.25354 15.8481 6.38497 15.9086 6.52958C15.9691 6.67419 16.0001 6.82915 16 6.98562L15.7833 6.98543H16V6.98562V10.6207H11.8266C11.5068 10.6207 11.2 10.4951 10.9739 10.2717C10.7477 10.0483 10.6207 9.74519 10.6207 9.42919V5.79309ZM11.054 6.22122V9.42919C11.054 9.63165 11.1354 9.82581 11.2803 9.96896C11.4252 10.1121 11.6217 10.1925 11.8266 10.1925H15.5666V6.98524C15.5667 6.885 15.5468 6.78572 15.5081 6.69307C15.4693 6.60042 15.4125 6.51622 15.3408 6.44527C15.2691 6.37433 15.184 6.31803 15.0903 6.27958C14.9966 6.24115 14.8962 6.22132 14.7948 6.22122H11.054Z" fill="#4FBDBA"/>
<path fill-rule="evenodd" clip-rule="evenodd" d="M5.51727 11.5862H14.7989C15.1174 11.5862 15.423 11.7153 15.6482 11.9452C15.8735 12.1751 16 12.4868 16 12.8119V16.5517H6.72073C6.56279 16.552 6.40635 16.5205 6.26034 16.4591C6.11424 16.3975 5.98147 16.3072 5.86964 16.1933C5.75781 16.0793 5.66912 15.9439 5.60865 15.7949C5.54821 15.6459 5.51716 15.4863 5.51727 15.3251M5.51727 11.5862V11.8064V11.5862ZM5.94888 12.0266L5.94888 15.3253C5.94879 15.4286 5.96868 15.5309 6.00742 15.6264C6.04616 15.7219 6.10298 15.8086 6.17463 15.8816C6.24627 15.9546 6.33134 16.0125 6.42494 16.0519C6.51855 16.0913 6.61885 16.1115 6.72011 16.1113L6.72058 16.1113L15.5684 16.1113V12.8119C15.5684 12.6036 15.4873 12.4039 15.343 12.2566C15.1987 12.1094 15.003 12.0266 14.7989 12.0266H5.94888ZM5.51727 11.8064V15.325V11.8064Z" fill="#4FBDBA"/>
<path d="M0.995327 11.7241H4.41379V15.4196C4.41379 15.6833 4.30893 15.9361 4.12227 16.1226C3.93561 16.309 3.68244 16.4138 3.41846 16.4138H0V12.7188C-2.53052e-08 12.455 0.104851 12.2021 0.291498 12.0156C0.478145 11.8291 0.731309 11.7242 0.995327 11.7241Z" fill="#4FBDBA"/>
<path d="M0.991325 0H15.8621V3.69546C15.8621 3.95914 15.7576 4.21201 15.5717 4.39846C15.3858 4.58491 15.1337 4.68965 14.8707 4.68965H0V0.994194C0 0.730518 0.104443 0.47764 0.290352 0.291193C0.476262 0.104745 0.728409 0 0.991325 0Z" fill="#4FBDBA"/>
</svg>
